<svg width="501" height="527" viewBox="0 0 501 527" fill="none" xmlns="http://www.w3.org/2000/svg">
<path d="M259.463 526.283C391.044 526.283 497.71 520.368 497.71 513.071C497.71 505.775 391.044 499.86 259.463 499.86C127.883 499.86 21.2166 505.775 21.2166 513.071C21.2166 520.368 127.883 526.283 259.463 526.283Z" fill="#CED3E6"/>
<path d="M414.418 513.002H98.2595V498.285C98.2595 486.035 107.504 476.098 118.901 476.098H393.776C405.173 476.098 414.418 486.035 414.418 498.285V513.002Z" fill="white"/>
<path d="M312.753 397.008H198.148V476.084H312.753V397.008Z" fill="white"/>
<path d="M198.148 421.286L312.74 411.433L312.766 397.008L198.161 397.148L198.148 421.286Z" fill="#CED3E6"/>
<path d="M500.654 70.4489V380.577C500.654 389.664 493.795 397.036 485.341 397.036H15.4857C7.03203 397.036 0.173096 389.664 0.173096 380.577V70.4489C0.173096 61.3623 7.03203 53.9899 15.4857 53.9899H485.341C485.574 53.9899 485.795 53.9899 486.015 54.0039C486.184 54.0178 486.352 54.0178 486.508 54.0317H486.521C486.638 54.0457 486.754 54.0457 486.871 54.0735C487.066 54.0875 487.26 54.1154 487.467 54.1432C487.597 54.1572 487.727 54.185 487.856 54.2129C487.921 54.2269 487.973 54.2268 488.038 54.2408C488.168 54.2547 488.284 54.2826 488.414 54.3244C495.403 55.8574 500.654 62.4912 500.654 70.4489Z" fill="white"/>
<path d="M262.253 383.363C266.678 379.261 267.171 372.08 263.355 367.325C259.538 362.569 252.858 362.039 248.433 366.141C244.009 370.243 243.516 377.423 247.332 382.179C251.148 386.935 257.829 387.465 262.253 383.363Z" fill="#CED3E6"/>
<path d="M488.427 54.3244C488.297 54.2965 488.181 54.2687 488.051 54.2408C487.986 54.2268 487.934 54.2129 487.869 54.2129C487.74 54.185 487.61 54.1572 487.48 54.1432C487.286 54.1154 487.091 54.0875 486.884 54.0735C486.767 54.0596 486.651 54.0457 486.534 54.0317H486.521C486.352 54.0178 486.197 54.0039 486.028 54.0039C485.808 53.9899 485.574 53.9899 485.354 53.9899H15.4857C7.03203 53.9899 0.173096 61.3623 0.173096 70.4489V357.638H500.654V70.4489C500.654 62.4912 495.403 55.8574 488.427 54.3244ZM480.803 328.943C480.803 331.423 478.936 333.416 476.641 333.416H24.1858C21.8779 333.416 20.0238 331.409 20.0238 328.943V79.8003C20.0238 77.3196 21.8908 75.3267 24.1858 75.3267H476.641C478.949 75.3267 480.803 77.3335 480.803 79.8003V328.943Z" fill="#39393B"/>
<path d="M480.803 79.8003V328.943C480.803 331.423 478.936 333.416 476.641 333.416H24.1859C21.878 333.416 20.0239 331.409 20.0239 328.943V79.8003C20.0239 77.3196 21.891 75.3267 24.1859 75.3267H476.641C478.936 75.3267 480.803 77.3335 480.803 79.8003Z" fill="#CED3E6"/>
<path d="M480.803 79.8003V103.311H20.0239V79.8003C20.0239 77.3196 21.891 75.3267 24.1859 75.3267H476.641C478.936 75.3267 480.803 77.3335 480.803 79.8003Z" fill="white"/>
<path d="M445.109 88.9426C445.109 91.047 443.527 92.7473 441.569 92.7473C439.611 92.7473 438.029 91.047 438.029 88.9426C438.029 86.8382 439.611 85.1379 441.569 85.1379C443.527 85.1379 445.109 86.8382 445.109 88.9426Z" fill="#DF615C"/>
<path d="M456.583 88.9426C456.583 91.047 455.001 92.7473 453.044 92.7473C451.086 92.7473 449.504 91.047 449.504 88.9426C449.504 86.8382 451.086 85.1379 453.044 85.1379C455.001 85.1379 456.583 86.8382 456.583 88.9426Z" fill="#21B573"/>
<path d="M423.663 92.9702H63.4075C61.6701 92.9702 60.2568 91.4372 60.2568 89.5837V88.3155C60.2568 86.448 61.6831 84.9289 63.4075 84.9289H423.663C425.4 84.9289 426.813 86.4619 426.813 88.3155V89.5837C426.826 91.4372 425.4 92.9702 423.663 92.9702Z" fill="#D2DCEC"/>
<path d="M36.659 88.9426V92.6637C36.659 93.1932 36.1274 93.5138 35.6995 93.249L32.7044 91.3815L29.7093 89.514C29.2815 89.2492 29.2815 88.5942 29.7093 88.3294L32.7044 86.4619L35.6995 84.5944C36.1274 84.3296 36.659 84.6641 36.659 85.1798V88.9426Z" fill="black"/>
<path d="M41.9363 88.9426V92.6637C41.9363 93.1932 42.4679 93.5138 42.8958 93.249L45.8909 91.3815L48.886 89.514C49.3138 89.2492 49.3138 88.5942 48.886 88.3294L45.8909 86.4619L42.8958 84.5944C42.4679 84.3296 41.9363 84.6641 41.9363 85.1798V88.9426Z" fill="black"/>
<path d="M461.381 92.148L461.173 91.925C460.836 91.5627 460.836 90.9913 461.173 90.6289L465.984 85.4585C466.321 85.0961 466.852 85.0961 467.189 85.4585L467.397 85.6815C467.734 86.0438 467.734 86.6152 467.397 86.9776L462.587 92.148C462.249 92.5104 461.705 92.5104 461.381 92.148Z" fill="#39393B"/>
<path d="M467.163 92.148L467.37 91.925C467.708 91.5627 467.708 90.9913 467.37 90.6289L462.56 85.4585C462.223 85.0961 461.691 85.0961 461.354 85.4585L461.147 85.6815C460.81 86.0438 460.81 86.6152 461.147 86.9776L465.957 92.148C466.294 92.5104 466.839 92.5104 467.163 92.148Z" fill="#39393B"/>
<path d="M419.151 323.396H80.4315C75.8286 323.396 72.1074 319.382 72.1074 314.449V117.944C72.1074 112.997 75.8416 108.997 80.4315 108.997H419.151C423.753 108.997 427.475 113.011 427.475 117.944V314.463C427.488 319.396 423.753 323.396 419.151 323.396Z" fill="white"/>
<path d="M170.142 266.87H87.8739C85.7216 266.87 83.9712 264.988 83.9712 262.675V216.726C83.9712 214.413 85.7216 212.531 87.8739 212.531H170.142C172.294 212.531 174.045 214.413 174.045 216.726V262.675C174.045 264.988 172.294 266.87 170.142 266.87Z" fill="#CED3E6"/>
<path d="M409.984 176.115H327.715C325.563 176.115 323.813 174.234 323.813 171.92V125.972C323.813 123.658 325.563 121.777 327.715 121.777H409.984C412.136 121.777 413.886 123.658 413.886 125.972V171.92C413.886 174.234 412.136 176.115 409.984 176.115Z" fill="#CED3E6"/>
<path d="M171.983 172.575H85.9029C84.7619 172.575 83.8284 171.586 83.8284 170.346V170.137C83.8284 168.91 84.7489 167.907 85.9029 167.907H171.983C173.124 167.907 174.058 168.896 174.058 170.137V170.346C174.045 171.572 173.124 172.575 171.983 172.575Z" fill="#CED3E6"/>
<path d="M171.983 152.883H85.9029C84.7619 152.883 83.8284 151.894 83.8284 150.653V150.444C83.8284 149.218 84.7489 148.214 85.9029 148.214H171.983C173.124 148.214 174.058 149.204 174.058 150.444V150.653C174.045 151.894 173.124 152.883 171.983 152.883Z" fill="#CED3E6"/>
<path d="M171.983 192.254H85.9029C84.7619 192.254 83.8284 191.264 83.8284 190.024V189.815C83.8284 188.588 84.7489 187.585 85.9029 187.585H171.983C173.124 187.585 174.058 188.575 174.058 189.815V190.024C174.045 191.264 173.124 192.254 171.983 192.254Z" fill="#CED3E6"/>
<path d="M411.825 218.691H325.887C324.746 218.691 323.813 217.702 323.813 216.461V216.252C323.813 215.026 324.733 214.022 325.887 214.022H411.825C412.966 214.022 413.899 215.012 413.899 216.252V216.461C413.886 217.702 412.966 218.691 411.825 218.691Z" fill="#CED3E6"/>
<path d="M411.825 199.013H325.887C324.746 199.013 323.813 198.023 323.813 196.783V196.574C323.813 195.348 324.733 194.344 325.887 194.344H411.825C412.966 194.344 413.899 195.334 413.899 196.574V196.783C413.886 198.01 412.966 199.013 411.825 199.013Z" fill="#CED3E6"/>
<path d="M411.825 238.383H325.887C324.746 238.383 323.813 237.394 323.813 236.154V235.945C323.813 234.718 324.733 233.715 325.887 233.715H411.825C412.966 233.715 413.899 234.704 413.899 235.945V236.154C413.886 237.38 412.966 238.383 411.825 238.383Z" fill="#CED3E6"/>
<path d="M72.1074 290.102H427.488V321.417C427.488 322.504 426.658 323.396 425.646 323.396H73.9486C72.9243 323.396 72.1074 322.504 72.1074 321.417V290.102Z" fill="#39393B"/>
<path d="M401.997 302.449V299.62H405.277V297.112H400.817C400.169 297.112 399.65 297.669 399.65 298.366V302.449H401.997Z" fill="white"/>
<path d="M401.997 307.467H399.663V311.759C399.663 312.456 400.182 313.013 400.83 313.013H405.29V310.505H402.01V307.467H401.997Z" fill="white"/>
<path d="M412.123 302.449H414.457V298.366C414.457 297.669 413.938 297.112 413.29 297.112H409.011V299.62H412.123V302.449Z" fill="white"/>
<path d="M412.123 307.467V310.505H409.011V313.013H413.29C413.938 313.013 414.457 312.456 414.457 311.759V307.467H412.123Z" fill="white"/>
<path d="M427.488 283.844H72.1074V290.102H427.488V283.844Z" fill="#CED3E6"/>
<path d="M97.9224 115.533H101.929V124.968H107.297V128.313H97.9224V115.533Z" fill="#39393B"/>
<path d="M108.399 115.533H112.405V128.313H108.399V115.533Z" fill="#39393B"/>
<path d="M127.057 115.533L122.026 128.313H118.084L113.053 115.533H117.371L120.211 123.003L123.115 115.533H127.057Z" fill="#39393B"/>
<path d="M137.338 125.052V128.299H127.446V115.519H137.118V118.767H131.387V120.258H136.418V123.366H131.387V125.052H137.338Z" fill="#39393B"/>
<path d="M91.3229 121.819C91.3229 124.718 89.1316 127.073 86.4347 127.073C83.7378 127.073 81.5466 124.718 81.5466 121.819C81.5466 118.92 83.7378 116.565 86.4347 116.565C89.1316 116.565 91.3229 118.906 91.3229 121.819Z" fill="#DF615C"/>
<path d="M381.174 262.619C381.174 265.169 379.255 267.232 376.882 267.232C374.509 267.232 372.59 265.169 372.59 262.619C372.59 260.069 374.509 258.006 376.882 258.006C379.255 257.992 381.174 260.069 381.174 262.619Z" fill="#DF615C"/>
<path d="M384.908 274.298H368.856C368.856 274.298 370.684 268.821 376.765 268.821C376.804 268.821 376.843 268.821 376.882 268.821C376.921 268.821 376.96 268.821 376.999 268.821C383.08 268.807 384.908 274.298 384.908 274.298Z" fill="#DF615C"/>
<path d="M399.715 259.818V262.717L395.384 273.796H390.587L394.71 263.469H392.208V265.504H388.59V259.818H399.715Z" fill="#39393B"/>
<path d="M411.125 270.145V273.796H400.7V270.897L405.394 266.229C406.289 265.337 406.418 264.793 406.418 264.305C406.418 263.622 405.99 263.204 405.161 263.204C404.383 263.204 403.644 263.664 403.242 264.5L399.935 262.731C400.882 260.807 402.762 259.497 405.562 259.497C408.648 259.497 410.814 261.211 410.814 263.873C410.814 265.253 410.477 266.493 408.584 268.333L406.729 270.145H411.125Z" fill="#39393B"/>
<path d="M346.438 160.506C346.438 160.506 349.641 171.572 357.667 172.45C364.149 173.147 369.219 165.788 370.931 162.931C371.345 162.248 371.553 161.83 371.553 161.83C371.553 161.83 372.02 161.816 372.72 161.691C374.354 161.426 377.206 160.632 378.062 158.291C379.281 154.974 373.109 153.747 373.109 153.747C373.109 153.747 375.754 150.389 374.73 148.396C373.718 146.431 369.595 146.612 369.595 146.612C369.595 146.612 373.563 142.905 371.76 140.466C369.038 136.8 365.096 141.873 364.759 142.166C365.005 141.776 375.183 125.136 371.942 124.467C369.115 123.881 359.741 137.316 357.239 140.995C356.837 141.581 356.616 141.915 356.616 141.915C356.616 141.915 356.422 141.804 356.085 141.623C354.49 140.786 349.628 138.654 347.099 141.65C344.052 145.26 346.438 160.506 346.438 160.506Z" fill="#EA9B7A"/>
<path d="M366.211 155.782C364.992 156.827 363.981 158.137 363.747 159.35C363.605 160.13 363.773 160.813 364.253 161.329C364.577 161.691 365.096 161.97 365.718 162.179C367.274 162.722 369.452 162.876 370.917 162.917C371.332 162.235 371.54 161.816 371.54 161.816C371.54 161.816 372.02 161.802 372.707 161.691C372.603 161.621 372.486 161.593 372.37 161.593C370.049 161.649 366.029 161.37 365.122 160.395C365.005 160.269 364.875 160.06 364.953 159.628C365.212 158.304 367.209 156.284 369.063 155.503C369.362 155.378 369.517 155.043 369.439 154.709C369.362 154.374 369.05 154.165 368.739 154.221C367.222 154.472 362.995 154.834 361.673 153.399C361.478 153.19 361.504 153.064 361.517 152.995C361.582 152.674 361.893 152.312 362.334 151.935C363.242 151.169 364.707 150.375 365.796 149.915C365.926 149.859 366.016 149.775 366.081 149.664C366.198 149.483 366.224 149.26 366.146 149.051C366.016 148.702 365.666 148.535 365.342 148.674C364.862 148.883 363.164 149.622 361.854 150.653C361.388 151.03 360.96 151.434 360.674 151.88C360.493 152.158 360.363 152.437 360.298 152.73C360.221 153.148 360.234 153.761 360.791 154.36C361.971 155.601 364.331 155.838 366.211 155.782Z" fill="#D46A43"/>
<path d="M360.195 146.068C360.376 146.263 360.441 146.542 360.337 146.807C360.026 147.615 359.858 148.368 359.935 148.911C360 149.343 360.182 149.497 360.337 149.566C360.584 149.692 360.96 149.734 361.413 149.72C362.541 149.678 364.175 149.232 365.64 148.73C365.575 148.842 365.472 148.925 365.355 148.981C364.266 149.441 362.801 150.235 361.893 151.002C361.751 151.016 361.595 151.03 361.452 151.03C360.999 151.044 360.584 151.016 360.221 150.932C360.065 150.89 359.922 150.835 359.793 150.779C359.17 150.472 358.794 149.887 358.691 149.106C358.574 148.284 358.781 147.281 359.17 146.277C359.339 145.845 359.845 145.748 360.156 146.054C360.182 146.068 360.182 146.068 360.195 146.068Z" fill="#D46A43"/>
<path d="M349.07 148.298C349.2 148.396 351.235 149.817 353.492 150.612C354.749 151.044 356.072 151.294 357.174 150.988C358.094 150.751 358.782 150.179 359.222 149.301C360.804 146.194 358.665 142.751 357.239 140.981C356.837 141.567 356.616 141.901 356.616 141.901C356.616 141.901 356.422 141.79 356.085 141.609C357.303 143.058 359.417 146.124 358.133 148.646C357.861 149.19 357.446 149.524 356.876 149.678C354.736 150.249 351.002 148.061 349.744 147.169C349.459 146.96 349.07 147.044 348.889 147.364C348.707 147.685 348.785 148.103 349.07 148.298Z" fill="#D46A43"/>
<path d="M355.437 166.248C355.644 166.318 355.877 166.276 356.046 166.109C356.305 165.858 356.318 165.44 356.098 165.161C354.866 163.684 354.334 162.053 354.516 160.339C354.996 155.949 359.884 152.214 359.936 152.172C360.221 151.963 360.286 151.545 360.091 151.239C359.897 150.932 359.508 150.862 359.223 151.071C359.002 151.239 353.816 155.183 353.271 160.172C353.038 162.29 353.686 164.255 355.164 166.039C355.242 166.151 355.333 166.22 355.437 166.248Z" fill="#D46A43"/>
<path d="M277.901 111.38L284.215 128.55C285.162 131.421 286.121 134.292 287.094 137.149C288.053 140.006 289.026 142.849 290.011 145.678C291.009 148.507 291.982 151.322 292.98 154.096C293.978 156.869 295.016 159.614 296.053 162.276C297.077 164.938 298.14 167.544 299.191 169.872C299.709 171.028 300.241 172.102 300.682 172.952L300.98 173.509L301.097 173.732C301.123 173.788 301.123 173.788 301.136 173.83C301.174 173.941 301.187 174.011 301.2 174.067C301.213 174.178 301.174 174.248 301.226 174.345C301.265 174.457 301.421 174.596 301.745 174.763C302.406 175.084 303.832 175.307 305.622 175.223C307.411 175.14 309.55 174.75 311.768 174.136C313.985 173.523 316.332 172.729 318.691 171.767C323.411 169.844 328.247 167.405 333.019 164.673C337.803 161.956 341.317 159.768 345.971 156.646C347.462 164.06 352.338 170.053 359.404 172.91C354.879 177.342 350.133 181.453 345.142 185.369C340.124 189.257 334.86 192.937 329.064 196.184C326.16 197.8 323.139 199.347 319.858 200.671C316.578 201.995 313.09 203.152 309.148 203.877C307.178 204.239 305.09 204.49 302.86 204.532C300.63 204.56 298.257 204.406 295.768 203.891C293.278 203.375 290.672 202.497 288.157 201.159C285.641 199.835 283.243 198.037 281.194 195.975C280.17 194.943 279.236 193.856 278.381 192.742L277.771 191.905L277.266 191.181C277.097 190.93 276.954 190.707 276.799 190.484C276.656 190.261 276.488 190.01 276.358 189.801C275.243 188.031 274.322 186.414 273.467 184.826C271.768 181.676 270.329 178.68 268.928 175.697C267.554 172.715 266.271 169.76 265.026 166.806C263.781 163.865 262.575 160.925 261.421 157.97C260.267 155.029 259.126 152.089 258.011 149.134C256.909 146.18 255.833 143.239 254.783 140.285C253.745 137.33 252.708 134.362 251.697 131.393L250.206 126.92L249.48 124.662C249.233 123.895 249 123.171 248.754 122.362L277.901 111.38Z" fill="#21B573"/>
<path d="M295.093 182.819C295.34 182.819 295.573 182.707 295.729 182.47C295.755 182.429 298.802 178.094 301.447 176.06C301.81 175.781 301.887 175.251 301.628 174.861C301.369 174.471 300.876 174.387 300.513 174.666C297.661 176.854 294.575 181.258 294.445 181.439C294.186 181.815 294.251 182.359 294.601 182.638C294.756 182.763 294.925 182.819 295.093 182.819Z" fill="#217C58"/>
<path d="M300.513 183.669C300.565 183.669 300.63 183.669 300.682 183.655C301.11 183.557 301.382 183.097 301.291 182.638C301.278 182.596 300.552 178.958 301.278 176.213C301.395 175.753 301.149 175.279 300.734 175.154C300.306 175.028 299.865 175.293 299.748 175.739C298.905 178.903 299.696 182.847 299.735 183.014C299.813 183.404 300.137 183.669 300.513 183.669Z" fill="#217C58"/>
<path d="M293.11 275.176C278.355 284.304 242.686 289.001 219.425 279.078C210.894 275.441 209.39 273.197 210.038 256.724C210.064 256.111 210.09 255.497 210.116 254.884C210.18 253.588 210.258 252.292 210.349 251.01C210.388 250.383 210.44 249.77 210.479 249.156C210.647 246.857 210.855 244.599 211.088 242.439C211.153 241.84 211.218 241.254 211.27 240.669C211.801 235.847 212.657 231.513 213.435 228.154C213.577 227.555 213.72 226.969 213.85 226.44C214.68 223.151 215.341 221.172 215.341 221.172C219.088 221.827 222.952 222.203 226.841 222.37C227.386 222.398 227.944 222.412 228.488 222.426C248.611 222.998 269.084 218.106 278.575 215.444C279.146 215.291 279.677 215.137 280.17 214.984C282.633 214.273 284.034 213.813 284.034 213.813C284.034 213.813 284.902 215.444 286.121 218.148C286.342 218.649 286.588 219.179 286.821 219.75C288.753 224.21 291.217 230.677 292.617 237.422C292.643 237.505 292.656 237.589 292.669 237.673C292.786 238.258 292.902 238.843 293.019 239.429C293.045 239.54 293.071 239.666 293.084 239.777C294.043 244.669 294.925 249.811 295.521 254.717C295.599 255.344 295.664 255.971 295.742 256.598C296.922 267.385 297.103 272.709 293.11 275.176Z" fill="#39393B"/>
<path d="M293.11 239.791C293.071 239.777 293.032 239.749 293.006 239.735C290.011 237.979 287.366 235.317 285.097 231.792C284.786 231.318 284.488 230.816 284.189 230.3C281.907 226.314 280.027 221.353 278.588 215.458C279.159 215.305 279.69 215.151 280.183 214.998C281.596 220.823 283.437 225.673 285.68 229.52C285.979 230.036 286.29 230.523 286.601 231.011C288.377 233.743 290.4 235.889 292.643 237.436C292.669 237.519 292.682 237.603 292.695 237.687C292.812 238.272 292.928 238.857 293.045 239.443C293.058 239.554 293.084 239.68 293.11 239.791Z" fill="#585859"/>
<path d="M228.501 222.44C227.853 228.656 226.556 233.91 224.663 238.188C224.417 238.746 224.157 239.303 223.872 239.819C222.316 242.843 220.41 245.31 218.167 247.205C215.419 249.519 212.618 250.564 210.349 251.01C210.388 250.383 210.44 249.77 210.479 249.156C212.462 248.71 214.848 247.749 217.182 245.784C219.127 244.153 220.786 242.035 222.174 239.47C222.459 238.941 222.731 238.397 222.991 237.84C224.909 233.701 226.193 228.544 226.867 222.37C227.399 222.398 227.943 222.426 228.501 222.44Z" fill="#585859"/>
<path d="M286.834 219.764C285.693 220.308 284.475 220.865 283.165 221.437C282.659 221.66 282.141 221.883 281.609 222.106C274.011 225.297 264.066 228.572 253.331 229.757C252.916 229.799 252.501 229.84 252.099 229.882C242.362 230.844 232.443 230.398 224.274 229.576C223.691 229.52 223.12 229.464 222.55 229.394C219.101 229.018 216.002 228.586 213.435 228.168C213.577 227.569 213.72 226.983 213.85 226.454C216.495 226.872 219.671 227.318 223.224 227.708C223.782 227.764 224.352 227.82 224.923 227.875C233.247 228.684 243.347 229.088 253.162 228.001C263.638 226.844 273.35 223.653 280.805 220.545C281.337 220.322 281.842 220.099 282.348 219.89C283.697 219.304 284.954 218.733 286.121 218.176C286.355 218.663 286.588 219.207 286.834 219.764Z" fill="#585859"/>
<path d="M309.745 350.516C307.593 314.755 302.705 281.6 295.547 254.731L255.989 274.535C257.221 307.076 263.301 329.626 270.303 350.516H309.745Z" fill="#39393B"/>
<path d="M276.695 350.516C265.22 315.327 263.211 286.534 263.185 286.158C263.146 285.67 262.757 285.308 262.303 285.335C261.849 285.363 261.499 285.795 261.538 286.283C261.564 286.646 263.574 315.341 274.958 350.516H276.695Z" fill="#585859"/>
<path d="M248.118 350.516C250.556 325.11 253.37 293.906 253.733 281.823L210.038 256.71C210.038 256.71 202.336 285.28 207.393 350.502H248.118V350.516Z" fill="#39393B"/>
<path d="M244.125 350.516L251.451 285.461C251.515 284.903 251.152 284.402 250.634 284.346C250.115 284.276 249.648 284.667 249.596 285.224L242.245 350.516H244.125Z" fill="#585859"/>
<path d="M257.532 276.068C257.584 276.555 257.998 276.89 258.439 276.848C258.439 276.848 258.439 276.848 258.452 276.848C258.906 276.792 259.23 276.346 259.178 275.859C258.815 272.556 258.465 269.169 258.128 265.797C258.063 265.197 258.011 264.612 257.96 264.013C256.896 252.947 256.028 242.063 255.457 234.356C255.418 233.729 255.366 233.129 255.328 232.544C255.198 230.858 255.094 229.353 255.003 228.084C254.446 228.084 253.901 228.098 253.344 228.098C253.435 229.367 253.538 230.886 253.668 232.586C253.707 233.171 253.759 233.77 253.798 234.398C254.368 242.035 255.224 252.822 256.287 263.818C256.339 264.431 256.404 265.03 256.456 265.643C256.793 269.141 257.156 272.653 257.532 276.068Z" fill="#585859"/>
<path d="M253.421 264.946C253.694 265.03 254.925 265.42 256.455 265.629C256.987 265.713 257.557 265.769 258.128 265.783C258.66 265.797 259.178 265.783 259.697 265.727C260.695 265.601 261.616 265.323 262.355 264.751C263.262 264.04 263.755 262.967 263.768 261.643C263.833 258.159 262.899 243.986 262.186 233.98C262.147 233.366 262.108 232.767 262.057 232.182C261.94 230.579 261.836 229.13 261.745 227.889C261.201 227.917 260.643 227.945 260.099 227.959C260.19 229.199 260.293 230.677 260.41 232.307C260.449 232.892 260.488 233.492 260.54 234.105C261.24 244.097 262.173 258.243 262.109 261.616C262.096 262.396 261.862 262.94 261.369 263.33C260.579 263.943 259.282 264.082 257.946 264.013C257.376 263.985 256.805 263.915 256.274 263.818C255.288 263.65 254.42 263.427 253.888 263.26C253.447 263.121 252.994 263.385 252.864 263.859C252.734 264.319 252.981 264.807 253.421 264.946Z" fill="#585859"/>
<path d="M203.633 125.805L266.698 124.063C264.74 121.122 264.922 93.026 264.053 87.2284C263.146 81.2497 263.846 69.3758 264.676 59.676C266.283 41.0569 252.215 25.0996 234.841 26.0194C234.582 26.0333 234.323 26.0473 234.05 26.0612C207.535 27.8729 205.59 52.2897 208.054 67.0763C210.31 80.525 211.879 117.22 203.633 125.805Z" fill="#39393B"/>
<path d="M217.312 213.841L222.394 236.767C235.101 235.68 250.128 233.701 261.447 227.415C261.447 227.415 276.526 232.865 284.176 230.328L278.575 213.855H217.312V213.841Z" fill="white"/>
<path d="M291.969 230.802C277.317 230.691 268.526 228.656 260.54 221.618C245.551 238.356 208.534 238.997 208.534 238.997C212.242 226.147 213.448 203.417 213.448 203.417C213.149 201.062 212.994 198.609 212.761 196.114C212.527 193.633 212.216 191.111 211.62 188.63C207.963 177.3 203.697 169.175 199.898 157.454C199.652 156.688 199.406 155.935 199.146 155.183C198.978 154.681 198.809 154.193 198.641 153.705C197.396 150.04 196.048 146.389 194.647 142.877C188.514 127.533 187.529 110.224 202.271 104.942C203.347 104.565 204.398 104.189 205.422 103.841C212.397 101.471 218.206 99.9106 219.827 99.4925C220.125 99.4228 220.268 99.381 220.268 99.381L251.217 102.14L254.16 102.405C258.491 102.921 263.068 102.795 265.959 103.478C268.501 104.078 270.043 103.938 272.637 104.761C278.731 106.698 278.562 115.519 280.455 126.474C280.481 126.655 280.52 126.85 280.546 127.045C280.559 127.101 280.572 127.17 280.585 127.226C280.922 129.094 281.311 130.933 281.765 132.759C282.27 134.794 282.828 136.814 283.411 138.766C286.977 150.793 291.281 156.312 290.542 163.893C289.868 170.75 283.372 180.101 281.648 182.094C281.246 182.554 281.013 182.805 281.013 182.805C281.013 182.833 281.026 182.874 281.026 182.916C281.051 183.181 281.077 183.474 281.116 183.78C281.246 184.937 281.44 186.303 281.674 187.864C282.205 193.647 282.97 198.901 283.826 203.57C284.293 206.093 284.786 208.448 285.304 210.622C288.403 223.792 291.969 230.802 291.969 230.802Z" fill="#21B573"/>
<path d="M285.304 210.594C281.116 212.977 277.732 214.566 277.732 214.566L274.607 208.239C277.603 207.082 280.805 205.368 283.826 203.528C284.513 205.493 285.149 207.486 285.304 210.594Z" fill="#217C58"/>
<path d="M217.778 204.657C217.778 204.657 231.859 211.082 242.284 212.169L240.689 219.123C240.689 219.123 223.613 216.099 216.78 210.859L217.778 204.657Z" fill="#217C58"/>
<path d="M283.541 181.063C283.748 181.063 283.956 180.979 284.124 180.798C284.513 180.366 293.447 170.109 290.335 160.757C289.466 158.151 288.468 155.531 287.392 152.758C284.15 144.312 280.481 134.752 279.547 122.348C279.509 121.875 279.12 121.526 278.692 121.568C278.251 121.61 277.927 122.014 277.966 122.488C278.925 135.156 282.646 144.856 285.927 153.413C286.99 156.172 287.988 158.778 288.844 161.343C291.632 169.705 283.074 179.53 282.983 179.627C282.685 179.976 282.698 180.519 283.009 180.84C283.139 180.993 283.333 181.063 283.541 181.063Z" fill="#217C58"/>
<path d="M257.532 144.507C257.532 145.539 256.754 146.375 255.794 146.375C254.835 146.375 254.057 145.539 254.057 144.507C254.057 143.476 254.835 142.64 255.794 142.64C256.754 142.64 257.532 143.476 257.532 144.507Z" fill="#217C58"/>
<path d="M260.125 161.05C260.125 162.081 259.347 162.917 258.387 162.917C257.428 162.917 256.65 162.081 256.65 161.05C256.65 160.019 257.428 159.182 258.387 159.182C259.347 159.182 260.125 160.019 260.125 161.05Z" fill="#217C58"/>
<path d="M261.667 177.857C261.667 178.889 260.89 179.725 259.93 179.725C258.971 179.725 258.193 178.889 258.193 177.857C258.193 176.826 258.971 175.99 259.93 175.99C260.902 175.99 261.667 176.826 261.667 177.857Z" fill="#217C58"/>
<path d="M262.342 195.153C262.342 196.184 261.564 197.02 260.604 197.02C259.645 197.02 258.867 196.184 258.867 195.153C258.867 194.121 259.645 193.285 260.604 193.285C261.564 193.285 262.342 194.121 262.342 195.153Z" fill="#217C58"/>
<path d="M262.264 213.131C262.264 214.162 261.486 214.998 260.526 214.998C259.567 214.998 258.789 214.162 258.789 213.131C258.789 212.099 259.567 211.263 260.526 211.263C261.486 211.263 262.264 212.099 262.264 213.131Z" fill="#217C58"/>
<path d="M247.652 102.113C247.652 102.113 254.368 101.458 259.087 102.809L258.582 121.791L254.562 122.725L257.946 126.306L253.888 139.044C253.888 139.016 248.339 117.833 247.652 102.113Z" fill="#217C58"/>
<path d="M220.255 99.381L207.963 102.991L222.407 123.617L233.234 122.683L229.435 131.588L253.888 139.002C253.888 139.002 225.571 110.098 223.302 99.6458L220.255 99.381Z" fill="#217C58"/>
<path d="M222.407 100.928C222.407 100.928 229.473 117.094 253.888 139.002C253.888 139.002 252.578 121.763 247.664 103.283C247.664 103.297 233.285 108.677 222.407 100.928Z" fill="white"/>
<path d="M257.285 152.549C249.246 152.549 232.832 140.173 232.131 139.644C231.833 139.421 231.768 138.975 231.976 138.654C232.183 138.334 232.598 138.264 232.896 138.487C233.065 138.612 249.661 151.141 257.285 151.141C264.585 151.141 266.193 142.57 266.219 142.487C266.283 142.096 266.633 141.846 266.996 141.929C267.36 141.999 267.593 142.375 267.515 142.765C267.502 142.835 265.661 152.549 257.285 152.549Z" fill="#217C58"/>
<path d="M247.651 102.113L247.976 106.586C248.598 114.934 243.062 117.303 235.023 112.885C228.669 109.387 223.276 104.175 222.394 100.942L247.651 102.113Z" fill="#EA9B7A"/>
<path d="M236.138 187.39C236.268 187.641 236.514 187.78 236.76 187.78C236.877 187.78 237.007 187.752 237.11 187.683C237.227 187.613 248.844 180.575 263.029 183.557C270.238 185.062 276.358 184.909 281.116 183.766C281.077 183.46 281.051 183.181 281.026 182.902C281.026 182.861 281.013 182.833 281.013 182.791C281.013 182.791 281.246 182.54 281.648 182.094C276.993 183.362 270.77 183.613 263.301 182.038C248.572 178.944 236.89 186.038 236.397 186.345C236.06 186.554 235.943 187.014 236.138 187.39Z" fill="#217C58"/>
<path d="M260.916 46.3667C260.916 46.3667 264.481 61.432 262.199 64.0521C259.917 66.6861 256.533 61.0418 256.533 61.0418C256.533 61.0418 258.206 46.9799 260.916 46.3667Z" fill="#39393B"/>
<path d="M256.987 66.3237C256.987 66.3237 260.682 61.641 262.77 66.3237C264.857 71.0064 263.249 80.4971 257.635 78.9502L256.987 66.3237Z" fill="#D46A43"/>
<path d="M253.746 77.9746C251.697 79.0059 250.271 81.2357 250.271 83.8279C250.271 87.3957 252.968 90.2944 256.287 90.2944C259.606 90.2944 262.303 87.3957 262.303 83.8279C262.303 81.2636 260.916 79.0477 258.906 78.0025C258.219 77.6401 257.454 77.4171 256.65 77.3753C256.507 76.9712 256.378 76.567 256.222 76.1768C256.248 76.1768 256.274 76.1768 256.287 76.1768C257.272 76.1768 258.219 76.3998 259.062 76.79C261.603 77.9607 263.405 80.6783 263.405 83.8279C263.405 88.0507 260.216 91.479 256.287 91.479C252.358 91.479 249.169 88.0507 249.169 83.8279C249.169 80.9849 250.621 78.5042 252.76 77.1802L253.746 77.9746Z" fill="white"/>
<path d="M247.664 90.3641V103.283C247.664 103.283 241.324 114.446 222.407 100.928C225.986 96.6216 226.102 88.3155 224.65 83.3541C224.65 83.3541 226.037 84.3575 228.332 85.4585C228.799 85.6815 229.305 85.9184 229.836 86.1553C234.556 88.3015 241.674 90.8658 247.664 90.3641Z" fill="#EA9B7A"/>
<path d="M247.664 90.3641V96.4126C242.517 95.1862 233.506 92.1619 228.332 85.4585C228.799 85.6815 229.305 85.9184 229.836 86.1553C234.556 88.3015 241.674 90.8658 247.664 90.3641Z" fill="#39393B"/>
<path d="M257.946 86.1414C247.846 97.3742 225.428 83.9673 224.702 83.5352C224.689 83.5213 224.689 83.5213 224.689 83.5213C224.482 82.5179 224.3 81.5145 224.131 80.5389C222.705 72.177 222.615 64.4283 223.405 57.0559C223.029 49.2794 227.334 42.0464 234.141 39.3705C241.195 36.6111 247.522 39.9419 251.321 41.1962C257.052 43.0916 260.669 51.0633 260.695 62.4215C260.708 76.344 260.449 83.3541 257.946 86.1414Z" fill="#EA9B7A"/>
<path d="M259.476 49.4606C257.142 49.809 254.744 50.0738 252.28 50.2828L250.932 43.3424L250.491 50.4222C245.953 50.7567 241.246 50.8821 236.41 50.8821L235.814 43.5794L234.491 50.8821C230.912 50.8681 227.282 50.7845 223.626 50.673C220.695 36.1094 235.386 29.7683 247.742 32.7925C260.086 35.8307 259.476 49.4606 259.476 49.4606Z" fill="#39393B"/>
<path d="M233 46.3667C233 46.3667 228.449 52.8889 230.939 58.9513C233.428 65.0137 231.691 70.9506 230.511 75.3685C230.511 75.3685 227.931 65.6129 221.85 63.8012C215.769 61.9755 218.906 44.095 233 46.3667Z" fill="#39393B"/>
<path d="M249.272 80.0093C250.608 80.2323 251.684 79.8421 251.749 79.8142C251.969 79.7306 252.099 79.4658 252.021 79.2289C251.943 78.992 251.697 78.8526 251.477 78.9362C251.451 78.9502 249.363 79.6749 247.626 78.3091C247.431 78.1558 247.159 78.1976 247.016 78.4066C246.874 78.6157 246.913 78.9084 247.107 79.0477C247.833 79.6331 248.585 79.8978 249.272 80.0093Z" fill="#D46A43"/>
<path d="M255.69 72.7484C255.69 72.7484 248.663 75.3824 243.386 71.6474C243.386 71.6474 245.24 76.7482 249.791 77.236C254.342 77.7098 255.69 72.7484 255.69 72.7484Z" fill="white"/>
<path d="M244.501 52.0806C244.501 52.0806 246.601 52.3036 245.862 54.3662C245.123 56.4288 240.922 54.1571 237.914 57.9618C237.914 57.9757 236.631 53.0144 244.501 52.0806Z" fill="#39393B"/>
<path d="M254.005 52.0806C254.005 52.0806 251.904 52.3036 252.643 54.3662C253.382 56.4288 257.583 54.1571 260.591 57.9618C260.591 57.9757 261.875 53.0144 254.005 52.0806Z" fill="#39393B"/>
<g opacity="0.8">
<g opacity="0.8">
<g opacity="0.8">
<g opacity="0.8">
<g opacity="0.8">
<g opacity="0.8">
<g opacity="0.8">
<path opacity="0.8" d="M243.36 67.3968C243.36 68.4421 241.35 69.3061 238.861 69.3061C236.371 69.3061 234.362 68.456 234.362 67.3968C234.362 66.3516 236.371 65.4875 238.861 65.4875C241.35 65.4875 243.36 66.3516 243.36 67.3968Z" fill="#D46A43"/>
</g>
</g>
</g>
</g>
</g>
</g>
</g>
<path d="M261.693 69.2504C261.343 69.2922 260.98 69.3061 260.604 69.3061C258.115 69.3061 256.105 68.456 256.105 67.3968C256.105 66.3516 258.115 65.4875 260.604 65.4875C260.941 65.4875 261.266 65.5015 261.577 65.5293L261.693 69.2504Z" fill="#D46A43"/>
<path d="M243.879 62.4075C243.879 63.8569 243.269 65.0276 242.517 65.0276C241.765 65.0276 241.156 63.8569 241.156 62.4075C241.156 60.9582 241.765 59.7875 242.517 59.7875C243.269 59.8014 243.879 60.9721 243.879 62.4075Z" fill="#39393B"/>
<path d="M257.168 62.4075C257.168 63.8569 256.559 65.0276 255.807 65.0276C255.055 65.0276 254.446 63.8569 254.446 62.4075C254.446 60.9582 255.055 59.7875 255.807 59.7875C256.559 59.8014 257.168 60.9721 257.168 62.4075Z" fill="#39393B"/>
<path d="M251.956 67.9125C252.605 67.9125 253.032 67.801 253.071 67.787C253.227 67.7452 253.344 67.6337 253.421 67.4944C253.499 67.3411 253.512 67.1738 253.46 67.0205L251.412 60.7212C251.308 60.4146 250.997 60.2474 250.712 60.3589C250.426 60.4704 250.271 60.8049 250.374 61.1115L252.19 66.7139C251.632 66.7418 250.776 66.6861 249.921 66.1843C249.648 66.031 249.311 66.1425 249.169 66.4213C249.026 66.7139 249.13 67.0763 249.389 67.2296C250.336 67.787 251.269 67.9125 251.956 67.9125Z" fill="#39393B"/>
<path d="M229.072 77.6819C229.007 77.8492 227.243 82.2531 224.702 83.5352C224.689 83.5213 224.689 83.5213 224.689 83.5213C224.482 82.5179 224.3 81.5145 224.132 80.5389C224.209 80.511 226.777 80.0372 229.072 77.6819Z" fill="#39393B"/>
<path d="M226.608 67.6477C226.608 67.6477 221.24 59.899 217.299 65.9892C214.057 71.0063 220.164 84.3854 226.725 79.4937L226.608 67.6477Z" fill="#EA9B7A"/>
<path d="M221.046 79.5773C218.997 80.6086 217.571 82.8802 217.571 85.4585C217.571 89.0262 220.268 91.925 223.587 91.925C226.906 91.925 229.603 89.0262 229.603 85.4585C229.603 82.8942 228.216 80.6783 226.206 79.633C225.519 79.2707 224.754 79.0477 223.95 79.0059C223.808 78.6017 223.678 78.1976 223.522 77.8074C223.548 77.8074 223.574 77.8074 223.587 77.8074C224.573 77.8074 225.519 78.0303 226.362 78.4206C228.903 79.5912 230.705 82.3088 230.705 85.4585C230.705 89.6812 227.516 93.1096 223.587 93.1096C219.659 93.1096 216.469 89.6812 216.469 85.4585C216.469 82.6154 217.96 80.0929 220.099 78.769C220.398 79.0756 220.709 79.3543 221.046 79.5773Z" fill="white"/>
<path d="M225.869 77.2778C225.895 77.2778 225.908 77.2778 225.934 77.2778C226.232 77.236 226.452 76.9433 226.426 76.6228C225.752 70.0308 220.592 67.7452 220.371 67.6477C220.086 67.5222 219.762 67.6755 219.658 67.9821C219.542 68.2887 219.684 68.6372 219.969 68.7486C220.177 68.8323 224.741 70.8809 225.337 76.7482C225.35 77.0548 225.597 77.2778 225.869 77.2778Z" fill="#39393B"/>
<path d="M220.709 73.6822C220.825 73.6822 220.955 73.6404 221.059 73.5428C221.538 73.1247 222.991 72.0934 223.95 72.3582C224.248 72.4418 224.547 72.2467 224.624 71.9262C224.702 71.6056 224.521 71.2851 224.222 71.2015C222.563 70.7416 220.579 72.4279 220.359 72.6091C220.125 72.8181 220.086 73.1944 220.281 73.4452C220.397 73.5986 220.553 73.6822 220.709 73.6822Z" fill="#39393B"/>
<path d="M184.028 190.4C184.028 190.4 185.792 194.497 183.756 203.431C181.72 212.378 178.31 217.98 178.31 217.98C178.31 217.98 169.766 204.058 184.028 190.4Z" fill="#217C58"/>
<path d="M146.375 181.843C146.401 182.289 146.427 182.749 146.466 183.181C146.518 183.627 146.583 184.059 146.648 184.505C146.687 184.714 146.712 184.937 146.764 185.16L146.907 185.787C147.27 187.487 147.841 189.007 148.463 190.4C148.774 191.069 149.124 191.752 149.461 192.337C149.643 192.63 149.811 192.937 149.993 193.229L150.537 194.052C152.016 196.212 153.584 197.828 155.101 199.208C156.631 200.588 158.148 201.717 159.626 202.734C160.366 203.25 161.105 203.71 161.844 204.169C162.583 204.629 163.296 205.047 164.022 205.466C165.474 206.274 166.9 207.04 168.327 207.737C171.179 209.145 174.006 210.329 176.832 211.402C179.646 212.476 182.472 213.437 185.273 214.315C188.086 215.207 190.887 216.015 193.701 216.754C196.514 217.493 199.328 218.162 202.167 218.803C203.192 219.026 204.605 219.179 206.083 219.304C208.339 219.486 210.79 219.625 212.397 219.918C212.786 217.409 210.816 215.388 211.204 212.88C211.658 209.953 212.112 207.012 212.605 204.086L211.477 201.466C209.765 201.02 208.054 200.546 206.329 200.058C206.277 200.044 206.226 200.03 206.174 200.016C203.671 199.292 201.195 198.483 198.731 197.619C196.229 196.755 193.74 195.821 191.289 194.832C188.851 193.842 186.466 192.783 184.145 191.654C181.837 190.526 179.581 189.341 177.493 188.073C176.456 187.446 175.432 186.805 174.498 186.122C174.031 185.787 173.565 185.453 173.137 185.104C172.709 184.756 172.294 184.407 171.905 184.059C171.309 183.529 170.764 182.972 170.323 182.456C170.194 182.303 170.077 182.164 169.96 182.01L169.934 181.983L170.336 181.397L171.062 180.338C171.438 179.781 171.801 179.237 172.216 178.666C173.02 177.537 173.798 176.422 174.615 175.293L177.091 171.92C178.777 169.677 180.45 167.405 182.174 165.161L183.458 163.475L184.754 161.789L186.582 159.419L187.36 158.416L188.307 157.19L189.979 155.029L192.624 151.657C194.375 149.413 196.138 147.155 197.915 144.925L208.508 131.491L208.572 131.407C213.033 125.749 212.384 117.262 207.12 112.467C201.895 107.715 194.103 108.37 189.616 113.889L186.842 117.317L184.119 120.746C183.211 121.888 182.317 123.045 181.422 124.188C180.527 125.331 179.62 126.487 178.738 127.644C176.962 129.958 175.185 132.285 173.422 134.626L170.79 138.152L170.44 138.626L168.171 141.706C167.302 142.891 166.434 144.089 165.578 145.274L164.281 147.072L163.698 147.894L162.998 148.883C161.286 151.294 159.588 153.733 157.902 156.2L155.387 159.949C154.557 161.203 153.727 162.513 152.897 163.795C152.482 164.423 152.067 165.092 151.652 165.774L150.421 167.781L150.11 168.283L150.032 168.408L149.993 168.478L149.928 168.576L149.669 169.022C149.5 169.328 149.332 169.621 149.163 169.927C149.085 170.081 148.994 170.248 148.917 170.415L148.683 170.917C148.528 171.251 148.372 171.572 148.217 171.92C148.074 172.283 147.931 172.645 147.802 173.007L147.607 173.565C147.542 173.746 147.477 173.955 147.426 174.15C147.309 174.54 147.192 174.945 147.088 175.335C146.985 175.739 146.907 176.171 146.816 176.589C146.738 177.007 146.648 177.425 146.596 177.871C146.544 178.317 146.492 178.749 146.453 179.195C146.414 179.641 146.401 180.087 146.388 180.547L146.375 181.216C146.362 181.397 146.375 181.62 146.375 181.843Z" fill="#EA9B7A"/>
<path d="M201.065 198.4C201.065 198.4 199.043 196.281 196.553 196.825C196.553 196.825 190.667 207.542 193.727 216.74C193.727 216.74 195.088 218.064 197.954 217.813C197.941 217.813 195.088 206.762 201.065 198.4Z" fill="black"/>
<path d="M189.642 207.765C189.824 211.291 192.638 213.981 195.905 213.786C199.185 213.591 201.688 210.566 201.506 207.054C201.325 203.528 198.511 200.839 195.244 201.034C191.963 201.215 189.448 204.239 189.642 207.765Z" fill="black"/>
<path d="M195.827 212.169C198.277 212.016 200.158 209.758 200.015 207.138C199.872 204.504 197.772 202.483 195.321 202.636C192.871 202.79 190.991 205.047 191.133 207.667C191.276 210.288 193.376 212.322 195.827 212.169Z" fill="white"/>
<path d="M206.07 218.97C208.326 219.151 210.777 219.29 212.385 219.583C212.774 217.075 210.803 215.054 211.192 212.545C211.646 209.619 212.099 206.678 212.592 203.751L211.464 201.131C209.753 200.685 208.041 200.211 206.317 199.724C206.265 199.71 206.213 199.696 206.161 199.682C205.461 203.835 204.372 212.573 206.07 218.97Z" fill="#D46A43"/>
<path d="M211.607 119.073C212.812 123.254 211.892 127.825 209.221 131.128C204.216 137.344 194.647 149.357 189.344 156.897C181.928 167.433 172.566 180.659 172.566 180.659C172.566 180.659 179.309 187.028 184.041 190.386C184.041 190.386 172.476 200.894 178.323 217.967C178.323 217.967 157.539 205.688 147.024 193.898C139.348 185.285 141.474 174.54 148.489 164.255C152.029 159.071 179.348 125.609 189.046 113.903C192.625 109.583 198.278 107.854 203.36 109.736C206.602 110.962 210.025 113.582 211.607 119.073Z" fill="#21B573"/>
<path d="M206.55 202.859C206.55 202.859 207.367 197.745 208.599 192.839C209.623 188.742 211.697 187.474 211.697 187.474C212.151 190.261 212.786 191.947 212.864 197.02C212.864 197.02 214.018 195.863 216.119 196.323C218.219 196.783 225.454 198.428 225.558 200.225C225.765 204.337 216.702 202.386 216.702 202.386C216.702 202.386 226.414 204.351 226.167 207.235C225.973 209.563 217.182 210.009 217.182 210.009C217.182 210.009 225.662 210.092 224.637 213.367C223.561 216.838 215.691 214.65 215.691 214.65C215.691 214.65 221.357 217.576 220.812 218.803C220.021 220.573 216.663 221.06 211.244 219.639C205.668 218.176 206.55 202.859 206.55 202.859Z" fill="#EA9B7A"/>
<path d="M196.54 149.385C196.333 149.413 196.112 149.357 195.944 149.204C195.633 148.911 195.581 148.41 195.853 148.075L208.404 132.062C208.676 131.728 209.143 131.672 209.454 131.965C209.765 132.257 209.817 132.759 209.545 133.093L196.994 149.106C196.877 149.26 196.709 149.357 196.54 149.385Z" fill="#217C58"/>
<path d="M210.18 137.511L205.435 138.292C205.02 138.361 204.644 138.055 204.579 137.623C204.514 137.177 204.799 136.773 205.201 136.703L209.947 135.922C210.362 135.853 210.738 136.159 210.803 136.591C210.867 137.037 210.582 137.442 210.18 137.511Z" fill="#217C58"/>
<path d="M159.108 184.129C159.186 184.24 159.289 184.31 159.406 184.324C159.536 184.352 159.678 184.324 159.795 184.226C163.374 181.369 169.74 181.063 172.89 181.105C172.761 180.951 172.644 180.812 172.527 180.659L172.501 180.631L172.903 180.031C172.618 180.031 172.307 180.018 171.97 180.031C169.999 177.997 164.683 176.018 164.45 175.934C164.19 175.837 163.918 175.99 163.827 176.255C163.737 176.533 163.879 176.826 164.126 176.924C164.177 176.938 168.223 178.443 170.453 180.073C166.978 180.24 162.233 180.937 159.199 183.376C158.991 183.571 158.952 183.892 159.108 184.129Z" fill="#217C58"/>
</svg>
