<svg width="61" height="48" viewBox="0 0 61 48" fill="none" xmlns="http://www.w3.org/2000/svg">
<path d="M31 8.37106L53 0V7.28068L31 8.37106Z" fill="#B8E8F2"/>
<path d="M31 8.37106L57 1.52201V7.07076L31 8.37106Z" fill="#88CFE5"/>
<path d="M31.343 8.10478L9.51056 0V6.35406L31.343 8.10478Z" fill="#B8E8F2"/>
<path d="M31.343 8.10478L4.9095 1.4658V5.94557L31.343 8.10478Z" fill="#88CFE5"/>
<g filter="url(#filter0_d_26_29)">
<path d="M31.3791 39.4563L2.03158 35.1344L2 3.77605L31.3475 8.10135L31.3791 39.4563Z" fill="#472758"/>
</g>
<g filter="url(#filter1_d_26_29)">
<path d="M56.9956 27.1703C56.9956 32.9572 51.9467 37.6233 45.6994 38.7191L45.2074 38.8051C37.825 40.0967 31.0021 34.8038 31.0012 27.7846L31 17.9204C30.9993 12.5225 35.1139 7.89019 40.7913 6.8972L44.696 6.21424C50.792 5.1471 56.503 8.09384 55.7367 14.4448L-nan -nanL-nan -nanL55.7367 14.4448C55.3459 17.683 57.0459 23.4095 56.999 26.668C56.9967 26.8319 56.9954 26.9993 56.9956 27.1703ZM39.1349 13.2841C37.4886 13.9915 36.4336 15.5299 36.4336 17.2233L-nan -nanL-nan -nanL-nan -nanL-nan -nanL36.4336 17.2233C36.4336 19.0538 38.2491 20.413 40.1617 20.0186C45.6609 18.8846 55.3444 16.9397 55.7367 17.2233C56.2858 17.6202 55.7453 16.8264 55.5344 11.2693C55.3658 6.82812 56.0071 9.27983 55.3263 10.6081C55.008 11.2293 54.1581 11.2693 53.4211 11.2693H50.4104L45.1142 11.7998L40.2972 12.8828C39.9785 12.9545 39.668 13.055 39.3702 13.183L39.1349 13.2841ZM51.7385 27.7484C51.7385 25.9293 49.7691 24.1507 47.7663 24.5017L34.3274 27.1043C32.3903 27.4794 31.0014 29.0742 31.0016 30.923L-nan -nanL-nan -nanL31.0016 30.923C31.0018 33.0764 32.8698 34.8219 35.174 34.8219H37.0994C37.731 34.8219 38.3588 34.7302 38.9604 34.5501L42.0288 33.6311L46.8019 31.9801C47.4437 31.7581 48.1181 31.6166 48.7481 31.3668C50.3664 30.7252 51.7385 29.2699 51.7385 27.7484Z" fill="#4D2C5E"/>
</g>
<defs>
<filter id="filter0_d_26_29" x="-2" y="3.77605" width="37.3791" height="43.6803" filterUnits="userSpaceOnUse" color-interpolation-filters="sRGB">
<feFlood flood-opacity="0" result="BackgroundImageFix"/>
<feColorMatrix in="SourceAlpha" type="matrix" values="0 0 0 0 0 0 0 0 0 0 0 0 0 0 0 0 0 0 127 0" result="hardAlpha"/>
<feOffset dy="4"/>
<feGaussianBlur stdDeviation="2"/>
<feComposite in2="hardAlpha" operator="out"/>
<feColorMatrix type="matrix" values="0 0 0 0 0 0 0 0 0 0 0 0 0 0 0 0 0 0 0.25 0"/>
<feBlend mode="normal" in2="BackgroundImageFix" result="effect1_dropShadow_26_29"/>
<feBlend mode="normal" in="SourceGraphic" in2="effect1_dropShadow_26_29" result="shape"/>
</filter>
<filter id="filter1_d_26_29" x="27" y="6" width="34" height="41" filterUnits="userSpaceOnUse" color-interpolation-filters="sRGB">
<feFlood flood-opacity="0" result="BackgroundImageFix"/>
<feColorMatrix in="SourceAlpha" type="matrix" values="0 0 0 0 0 0 0 0 0 0 0 0 0 0 0 0 0 0 127 0" result="hardAlpha"/>
<feOffset dy="4"/>
<feGaussianBlur stdDeviation="2"/>
<feComposite in2="hardAlpha" operator="out"/>
<feColorMatrix type="matrix" values="0 0 0 0 0 0 0 0 0 0 0 0 0 0 0 0 0 0 0.25 0"/>
<feBlend mode="normal" in2="BackgroundImageFix" result="effect1_dropShadow_26_29"/>
<feBlend mode="normal" in="SourceGraphic" in2="effect1_dropShadow_26_29" result="shape"/>
</filter>
</defs>
</svg>
